<?xml version="1.0" encoding="utf-8"?>
<!-- Generator: Adobe Illustrator 22.1.0, SVG Export Plug-In . SVG Version: 6.00 Build 0)  -->
<svg version="1.1" xmlns="http://www.w3.org/2000/svg" xmlns:xlink="http://www.w3.org/1999/xlink" x="0px" y="0px"
	 viewBox="0 0 95.6 76" style="enable-background:new 0 0 95.6 76;" xml:space="preserve">
<g id="Layer_2">
</g>
<g id="Layer_1">
	<path d="M92.2,60.1c-0.7-0.4-0.4-0.8-0.7-1.1c-0.7,1-1.5,1.8-2.5,2.5c-2.7,2-5.7,3.5-8.9,4.6c-1.9,0.6-3.8,1.4-5.7,2.1
		c-3,1.1-6.1,1.7-9.2,2.2c-2.8,0.5-5.7,0.6-8.5,1c-2,0.3-4.1,0.3-6.1,0.3c-2.1,0-4.2,0.3-6.3,0.1c-0.7,0-1.5-0.1-2.2-0.2
		c-2.2-0.3-4.4-0.1-6.7-0.3c-1.9-0.2-3.7-0.6-5.6-0.8c-2.9-0.2-5.7-1-8.6-1.4c-1.7-0.2-3.3-0.8-4.9-1.2c-2.4-0.6-4.9-1.1-7.2-2
		c-2.2-0.8-4-2.2-5.7-3.7C3.2,62,2.8,61.6,3,61c0.1-0.5-0.1-1-0.2-1.4c-0.7-2.5-1-5-1.3-7.6c-0.3-2.9-0.2-5.7,0.3-8.5
		c0.5-3.1,0.9-6.2,1.9-9.3c1-3,1.7-6,3-8.8c1.3-2.9,2.7-5.7,4.8-8.1c0.7-0.8,1.3-1.7,2-2.5c1.7-2.2,4-3.7,6.4-5
		c1.3-0.7,2.8-1.5,4.3-1.8c3-0.6,5.8-1.8,8.7-2.5c1.1-0.2,2.2-0.6,3.2-0.9c2.9-0.9,5.9-1.1,9-1.4c3.7-0.4,7.5-0.3,11.2-0.2
		c3.2,0.1,6.4,0.4,9.6,0.6c1.4,0.1,2.7,0.5,4.1,0.7c3.4,0.5,6.8,1.4,9.9,3.1c1.7,1,3.7,1.6,5.2,2.9c1.8,1.5,3.3,3.2,4.4,5.3
		c0.8,1.6,1.6,3.2,2.2,4.8c1,2.5,1.7,5.1,2.2,7.7c0.5,2.9,1.1,5.8,1.3,8.7c0.1,1.8,0.1,3.5,0,5.3c-0.2,3.6-0.7,7.2-1.2,10.8
		c-0.2,1,0,2.1-0.3,3.2c-0.1,0.4-0.2,0.9-0.5,1.2C92.4,58.1,91.9,58.8,92.2,60.1z M88.2,20.7c0.1-0.3,0.1-0.6,0.2-0.9
		c0.4-0.8,0.6-1.7,0-2.5c-0.5-0.7-0.6-1.6-1.4-2.2C86.6,17.2,87.6,18.9,88.2,20.7c0.1,0.8,0.3,1.7,0.5,2.5c0.3,0.8,0.2,1.8,0.8,2.5
		c1.5-1.7,1.3-4.8-0.4-6.3C88.6,19.7,88.7,20.4,88.2,20.7z M84.2,24.2L84.2,24.2c-0.6,0.8-0.7,1.8-0.9,2.7c-0.5,2.2-1.9,4-3,5.9
		c-0.5,0.9-0.9,1.8-1.7,2.6c-0.8,0.7-0.9,1.6-1,2.7c0.5,0,0.8-0.3,1-0.4c0.8-0.5,1.5-1,1.4-2.1c0-0.3,0-0.8,0.5-0.9
		c0.2,0.4-0.3,0.8,0,1.3c0.4,0,0.6-0.3,0.8-0.5c0.8-0.9,1.7-1.7,2.5-2.6c1.6-1.6,3-3.5,4.5-5.2c0.4-0.4,0.7-0.9,0.6-1.6
		c-0.2-1.3-0.5-2.6-0.9-3.9c-0.5,0.2-0.5,0.7-0.8,0.9l0,0c-0.1-0.4,0.1-0.8,0.3-1.1c0.2-0.3,0.3-0.7,0.2-1c-0.2-0.9-0.5-1.7-0.7-2.6
		c-0.3-0.8-0.5,0-0.7,0l0,0c0.2-0.9,0.2-1.8-0.2-2.7c-0.1-0.3-0.3-0.7-0.2-1c0.5,0,0.5,0.5,0.9,0.4c-0.3-0.9-0.5-1.7-1.4-2.2
		c-0.1-0.1-0.3-0.2-0.4-0.4c-0.3-1.1-1.2-1.5-2.1-1.9c-1.2-0.7-2.4-1.3-3.7-1.8C77.5,8,75.9,7,74.1,6.6c-2.6-0.6-5.2-1.2-7.9-1.5
		c-3.9-0.5-7.8-0.8-11.7-0.8c-3.3,0-6.5,0-9.7,0.3c-3.9,0.4-7.7,1-11.4,2.2c-0.6,0.2-1.3,0.1-1.4,1C32,8,31.8,8,31.7,7.9
		c-0.6-0.9-1.3-0.1-1.9-0.1c-0.8,0-1.4,0.7-2.1,0.7s-1.3,0.3-1.8,0.7c-0.8,0.6-1.7,1.1-2.5,1.8c-0.5,0.4-1.2,0.7-1.5,1.3
		c-0.7,1.5-2,2.4-3.2,3.4c-0.7,0.6-1.6,1-2.2,1.7c-2.2,2.3-3.9,4.9-4.8,8.1c-0.3,1.2-0.3,2.4,0.1,3.5c0.3,0.9,0.7,1.8,1.1,2.7
		c1.2,2.4,2.9,4.3,5.5,5.4c1.4,0.6,2.9,1.1,4.4,1.7c0.7,0.3,1.3,0.5,2,0.6c1.5,0.2,3,0.6,4.5,1.3c0.8,0.4,1.7,0.5,2.6,0.5
		c2-0.1,4,0,6,0.3c0.7,0.1,1.4,0.1,2.1,0c1.8-0.2,3.6-0.3,5.3-0.2s3.3-0.1,4.9-0.1c2.7-0.1,5.3-0.3,8-0.7c2.1-0.3,4.2-0.4,6.2-0.8
		c2.3-0.4,4.5-1.1,6.7-1.8c2.4-0.8,4.5-2.1,6.2-4c1.5-1.6,2.6-3.6,3.6-5.6c1.8-3.7,1.2-7.5,0.1-11.2c-1-3.2-3.4-5.1-6.6-6.1
		c-0.7-0.2-1.5-0.4-2.2-0.7c-1.4-0.6-2.8-0.8-4.2-1.2c-0.2-0.1-0.7-0.1-0.8,0c-0.7,0.8-1.5,0-2.2,0.2c-0.2,0.1-0.5-0.2-0.3-0.4
		c0.5-0.6,0-0.6-0.3-0.6c-2.7-0.4-5.5-0.5-8.3-0.3c-2.4,0.1-4.7,0.6-7,1c-2.1,0.3-4.2,0.5-6.2,0.9c-3.2,0.7-6.3,1.6-9.3,2.9
		c-0.7,0.3-1.4,0.8-2.1,1.1c-2,0.8-3.8,1.8-5.4,3.2c-0.8,0.7-1.6,1.4-2.2,2.4c-0.9,1.7-1.4,3.6-0.2,5.3c1,1.4,2.1,2.7,3.5,3.6
		c0.8,0.6,1.4,1.5,2.4,1.8c1.8,0.6,3.4,1.6,5,2.5c1.7,0.9,3.4,1.1,5.2,1.5c1,0.2,1.9,0.3,2.8,0.7c0.7,0.3,1.3,0.4,2.1,0.3
		c1.4,0,2.8-0.2,4.3,0.1c2.8,0.5,5.6,0.3,8.4-0.1c3.7-0.5,7.3-1.8,10.8-2.9c1.3-0.4,2.6-0.9,3.6-1.8c1-0.8,2.4-1.4,2.6-3
		c0-0.1,0.2-0.2,0.3-0.2c0.7-0.2,0.8-0.8,1-1.3c0.6-1.4,0.6-2.9,0.7-4.3c0.1-2.4-0.8-4.3-3-5.6c-1.5-0.9-3.2-1.6-4.9-2
		c-1.8-0.5-3.7-0.9-5.6-1.1c-2.7-0.2-5.3,0-8,0c-0.4,0-0.7,0-1.1,0.1c-1.8,0.4-3.6,0.7-5.4,0.7c-0.6,0-1.2,0.1-1.7,0.3
		C44,15,41.3,16,38.8,17.4c-1.4,0.8-2.8,1.7-4.2,2.6c-1.4,0.9-2.1,2.5-1.5,3.7c1,2.2,2.5,3.8,4.9,4.3c0.7,0.2,1.4,0.4,2.1,0.7
		c1.2,0.6,2.4,1.2,3.7,1.5c1.6,0.4,3.2,0.8,4.9,0.5c0.5-0.1,1,0.1,1.5,0.1c2.6,0.5,5.1,0.2,7.5-0.6c0.9-0.3,1.9-0.6,2.8-0.8
		c1-0.2,2-0.5,2.9-1.1c2.2-1.4,4.1-3.1,4.1-6.1c0-1.8-0.3-3.4-2-4.5c-1.2-0.7-2.4-0.9-3.7-1c-1.5-0.1-3-0.1-4.5-0.3
		c-2.2-0.3-4.4-0.3-6.6,0.2c-0.3,0.1-0.5,0-0.7,0.3s0.3,0.5,0,0.9c-0.8-0.7-1.6,0.4-2.4-0.1c-1.9,0.8-3.8,1.7-5,3.5
		c-0.4,0.5-0.5,1-0.2,1.6s0.7,1.2,1.3,1.5c2.3,1.3,4.8,1.9,7.4,1.9c1.6,0,3.2-0.5,4.7-1c0.6-0.2,1.2-0.4,1.7-0.8
		c0.5-0.3,0.9-0.6,0.8-1.3c-0.1-0.6-0.5-0.9-1-1.1c-0.7-0.3-1.5-0.5-2.3-0.8c-1-0.4-1.9-0.5-2.9-0.5c-0.7,0-1.4,0.1-2.1,0.3
		c-0.4,0.1-0.9,0.3-1-0.3c-0.1-0.5,0.3-0.8,0.8-0.9s1-0.3,1.6-0.3c1.9-0.1,3.6,0.3,5.3,0.9c0.7,0.3,1.4,0.5,2.1,0.8
		c1.3,0.7,1.5,3,0.6,3.7c-0.6,0.4-1.1,0.9-1.8,1.2c-2,0.9-4.2,1.1-6.3,1.5c-0.2,0-0.4,0-0.5,0c-2-0.2-3.9-0.3-5.8-1.3
		c-1.3-0.6-2.4-1.2-3.3-2.3c-0.9-1.1-0.8-2.3-0.4-3.4c0.6-1.3,1.6-2.4,2.9-3.1c1.6-0.9,3.3-1.6,5-2.1c1.6-0.5,3.2-0.7,4.9-0.7
		c2.6,0.1,5.2,0.4,7.7,0.4c1.2,0,2.3,0.3,3.4,0.7c1.3,0.5,2.5,1.1,3.3,2.4c0.7,1.2,1,2.6,0.9,4c-0.1,1.3,0.1,2.7-1,3.7
		c-0.3,0.2-0.4,0.6-0.6,0.9c-1.1,1.6-2.6,2.8-4.5,3.4c-2.2,0.7-4.4,1.3-6.7,1.8c-1.8,0.3-3.5,0.5-5.3,0.3c-0.7-0.1-1.4-0.3-2.1-0.3
		c-2.5,0.2-4.8-0.5-7-1.3c-1.4-0.5-2.8-1.1-4.3-1.5c-3.1-0.8-5-2.8-5.9-5.8c-0.4-1.4-0.1-2.9,1.1-3.9c1-0.9,2.1-1.7,3.3-2.3
		c2.4-1.2,4.7-2.6,7.2-3.4c1.9-0.7,3.7-1.5,5.8-1.5c1.6-0.1,3.1-0.2,4.6-0.5c2.1-0.4,4.2-0.3,6.2-0.3c1.2,0,2.4,0,3.6,0.1
		c3.4,0.6,6.9,1.1,10,2.8c0.3,0.2,0.7,0.5,1-0.1c0.2-0.2,0.5-0.2,0.7,0c0.3,0.2,0.2,0.4,0,0.7c-0.3,0.3,0.1,0.3,0.2,0.5
		c0.3,0.4,0.7,0.7,1,1.1c0.9,0.9,1.4,2,1.6,3.3c0.1,1.2,0.1,2.4,0.1,3.5c0,1.9-0.5,3.6-1.7,5c-0.3,0.4-0.6,0.8-0.9,1.1
		c-1.3,1.3-2.6,2.5-4.3,3.4c-1.7,0.9-3.6,1.3-5.4,1.9c-3.1,0.9-6.2,1.9-9.5,2.1c-2.4,0.1-4.7,0.3-7.1-0.1c-0.8-0.2-1.7-0.1-2.5-0.1
		c-1.7,0.1-3.3,0.1-4.8-0.6c-0.5-0.2-1-0.2-1.6-0.2c-1.8-0.1-3.4-0.9-5.2-1.1c-0.2,0-0.4-0.2-0.6-0.3c-0.6-0.4-1.2-0.7-1.9-1
		c-1.4-0.7-2.8-1.2-4-2.1c-1.5-1.1-3.1-2.1-4.2-3.7c-0.2-0.3-0.5-0.5-0.8-0.7c-0.6-0.6-1.2-1.3-1.6-2.1c-0.9-2.1-0.4-4,0.5-5.9
		c1-2.1,2.9-3.5,4.9-4.6c1.4-0.8,3-1.4,4.5-2.1c4-2,8.2-3.2,12.6-3.9c3.7-0.6,7.5-1.2,11.2-1.5c1.6-0.1,3.2-0.2,4.8-0.2
		c3.5,0.1,6.9,0.9,10.2,1.8c2.3,0.6,4.6,1.3,6.8,2.4c2.8,1.6,4.8,3.9,5.4,7.1c0.4,1.8,0.8,3.7,0.6,5.5
		C83.5,24.1,83.9,24.1,84.2,24.2z M77,36.8c-1.8,1.4-3.8,2.5-6,3c-1.2,0.3-2.4,1-3.7,1.1c-2.7,0.3-5.4,0.9-8.2,1.1
		c-4.2,0.3-8.4,0.7-12.7,0.8c-2,0-3.9-0.1-5.9,0.2c-1.1,0.2-2.1,0.3-3.2,0.1c-1.9-0.5-3.9-0.5-5.8-0.3c-0.9,0.1-1.8-0.1-2.7-0.5
		c-1.1-0.5-2.1-1-3.3-1.1c-1.6-0.1-3.1-0.6-4.6-1.4c-0.4-0.2-0.8-0.3-1.3-0.5c-4.7-1.3-7.7-4.5-9.3-9c-0.4-1.1-0.8-2.2-0.7-3.3
		c0.2-2.4,1.1-4.7,2.5-6.7c1.8-2.5,3.8-4.9,6.4-6.8c1.1-0.7,2-1.7,3-2.7c-0.3,0-0.4,0-0.5,0c-0.2,0.1-0.5,0.2-0.7,0.3
		c-3.6,2.1-6.4,5.1-8.8,8.4c-1.6,2.3-2.9,4.8-3.9,7.4c-1,2.5-1.7,5.1-2.5,7.6c-0.2,0.7-0.6,1.4-0.7,2.2c-0.4,2.8-1,5.6-1.3,8.4
		c-0.3,2.3-0.5,4.6-0.3,6.9c0.4,2.8,0.6,5.7,1.6,8.4c0.1,0.2,0.1,0.5,0.3,0.7c1.1,1.1,2.3,2.2,3.7,2.8c2,0.8,4,1.7,6.2,1.9
		c0.4,0,0.7,0.2,1,0.2c2.4,0.5,4.7,1.3,7.1,1.7c2.3,0.4,4.6,1,7,1.2s4.7,0.8,7,0.8c1.6-0.1,3.1,0,4.7,0.2c1.8,0.2,3.6,0.2,5.5,0.2
		c1,0,2-0.1,2.9-0.1c1.1,0.1,2.1,0.1,3.2-0.1c1.9-0.2,3.8-0.4,5.7-0.6c2.7-0.2,5.4-0.8,8.1-1.1c1.2-0.1,2.5-0.4,3.7-0.7
		c4-1.3,8-2.7,11.9-4.3c2.4-1,4.5-2.3,6.4-4c0.7-0.6,1.3-1.2,1.2-2.3c-1.6,0-3.2,0.3-4.8,0.7c-1,0.3-1,0.3-1,1.4
		c0,1.2-0.2,1.5-0.7,2.2c0.1-1,0.3-2,0.1-3.1c-1,0.2-1.9,0.4-2.8,0.6c-0.5,0.1-0.7,0.4-0.7,0.9c0,0.9-0.1,1.8-0.3,2.8
		c0.8,0,1.5-0.4,2.3-0.5c0.1,0.6-0.2,0.7-0.7,0.8c-1.4,0.3-2.9,0.7-4.3,1c-1.2,0.2-2.4,0.3-2.4,2c-0.6-0.4,0-0.9-0.5-1.3
		c-1.5,0.3-2.9,0.5-4.4,0.8c-0.6,0.1-1,0.3-1.1,1c-0.1,0.6-0.2,1.3-1,1.7c0.6-1.9,1-3.7,1.2-5.6s0.8-3.7,1-5.7c-2,0.4-4.1,1-6.1,0.7
		c1.4-0.5,2.9-0.6,4.4-0.8c0.7-0.1,1.4,0,1.9-0.4s0.2-1.1,0.4-1.6c0.1-0.4,0.2-0.8,0.3-1.2c0.1-0.3,0.2-0.6-0.1-0.9
		c-1.8,0.3-3.6,0.6-5.5,0.9c-1.8,0.2-3.6,0.6-5.6,0.6c0.2-0.3,0.4-0.3,0.6-0.3c3-0.5,6.1-1,9.1-1.5c1.6-0.3,1.6-0.3,1.8-2
		c0.4,0.4,0.2,1,0.4,1.5c0.6-0.1,1.2-0.2,1.8-0.2c0.4-0.1,0.8-0.1,1.2-0.2c0.5-0.1,1,0,1.3-0.5c0.3-0.4,0.1-0.9,0.2-1.3
		c0,0.1,0,0.3,0,0.4c0,1,0.1,1.1,1.1,0.9c0.8-0.2,1.6-0.3,2.4-0.5c1-0.2,1-0.2,1.1-1.3c0.1-0.6-0.2-1.2,0.2-2c0.2,1,0,2,0.4,3
		c0.9-0.2,1.8-0.4,2.7-0.5c0.3-0.1,0.6-0.2,0.6-0.6c0-1,0-2,0-2.9c0-0.7-0.3-0.9-1-0.6c-1.7,0.6-3.4,1.1-5.1,1.5
		c-2.5,0.7-5.1,1.3-7.7,1.6c-0.3,0-0.6,0.2-0.9-0.1c0.2-0.2,0.5-0.2,0.7-0.2c4-0.7,8-1.7,11.9-2.9c1-0.3,2.2-0.5,2-2
		c0.3,1.1,0.3,1.1,1.3,0.8c0.5-0.2,1-0.3,1.5-0.5c0.3-0.1,0.6-0.3,0.5-0.7c-0.3-1.4,0.1-2.9-0.3-4.4c-0.5-0.2-0.9,0.2-1.3,0.3
		c-0.7,0.3-1.4,0.6-2.1,0.8c-0.7,0.3-1.4,0.5-2.1,0.8s-1.4,0.5-2.1,0.8s-1.6,0.3-2.1,0.8c-0.7,0.6-1.4,0.1-2,0.4
		c-0.4,0.2-0.8,0.4-1.2,0.6c-0.3,0.2-0.8-0.1-1.3,0c-1.3,0.4-2.7,0.8-4,1c-0.8,0.2-1,0.6-1,1.3c-0.1,1.2-0.2,2.5-0.3,3.7
		c0,0.3,0,0.7-0.6,0.9c0.1-1.4,0.1-2.7,0.2-4s-0.1-1.6-1.3-1.2c-0.5,0.1-1,0.2-1.4,0.3c-0.6,0.1-1.1,0.3-1.7,0
		c1-0.2,1.9-0.6,2.8-0.7c1-0.2,2-0.2,1.8-1.7c0-0.2,0.2-0.4,0.4-0.4c0.2,0,0.2,0.2,0.3,0.4c0.1,0.3-0.1,0.7,0.3,1.1
		c1.6-0.4,3.2-0.8,4.9-1.2c0.4-0.1,0.6-0.3,0.7-0.7c0.1-0.2,0.2-0.4,0-0.6c-0.2-0.1-0.3-0.1-0.5,0c-0.5,0.3-1,0.6-1.5,0.5
		c-0.2,0-0.3-0.5-0.8-0.3c-0.4,0.2-0.9,0.2-1.4,0.3c-0.2,0-0.3,0.2-0.5,0c0.1-0.2,0.4-0.2,0.5-0.3c1.5-0.7,3.3-0.7,4.5-2.1
		c0.1-0.1,0.2-0.1,0.4-0.1C76.8,39,76.9,38.9,77,36.8z M87.8,50.9c-0.1,0-0.1,0-0.2,0c0-0.5,0-1,0-1.5c0-0.2-0.1-0.5-0.3-0.5
		c-0.8,0.2-1.6,0.2-2.3,0.7c-0.6,0.4-0.1,1-0.1,1.5c0,0.2-0.1,0.4-0.1,0.7c-0.1,0.6-0.1,1.2,0.1,1.9c1.7-0.5,3.4-0.6,4.9-1.5
		c0.2-0.1,0.5-0.2,0.6,0c0.2,0.3,0,0.5-0.3,0.6c-1,0.4-2,0.7-3.1,0.9c-2.3,0.6-2.3,0.6-2.4,2.9c0,0.7,0.1,0.9,0.8,0.7
		c1.1-0.3,2.2-0.6,3.4-0.6c1,0,1.8-0.3,2.3-1.4c0.1-0.2,0.3-0.5,0.5-0.6c0.3-0.2,0.4-0.4,0.4-0.8c0-2,0-4.1-0.3-6.2
		c-0.8,0.3-1.6,0.5-2.4,0.6c-1.2,0.2-1.3,0.4-1.5,1.6C87.8,50.3,87.8,50.6,87.8,50.9z M92.4,51c1.9-9.2,1.3-18.2-1.4-27.3
		c-0.5,1-0.8,1.8-1.2,2.4c-0.3,0.5-0.4,1-0.2,1.4c0.6,1.2,0,2.8,1.1,3.9v0.2c-0.4,1.3,0,2.5,0.2,3.7c0.5,3.3,0.9,6.7,1.1,10
		C92.2,47.2,92.3,49.1,92.4,51z M75,60.5c-0.8,0-1.4,0.3-2.1,0.4s-1.4,0.4-2.2,0.2c0.6-0.5,1.2-0.5,1.7-0.7c0.7-0.2,1.5-0.3,2.2-0.5
		c0.3-0.1,0.6-0.2,0.6-0.6c0.1-1.1,0.3-2.2,0.1-3.3c-1.3,0.2-2.5,0.3-3.7,0.5c-1,0.1-1,0.2-1.2,1.2c-0.3,1.4-0.4,2.9-0.7,4.3
		c-0.2,0.9-0.6,1.8-0.3,2.8c1-0.2,2-0.4,3-0.6c0.7-0.2,1.6-0.1,2.1-0.6c0.4-0.5,0.3-1.3,0.3-1.9C74.9,61.4,75.3,61,75,60.5z
		 M86.8,34.3c-2.2,1.4-4.7,2-6.7,3.5c-0.1,0.1-0.2,0.2-0.3,0.1c-0.8-0.1-1.3,0.5-1.9,0.7c-0.3,0.1-0.6,0.4-0.6,0.8
		c0,0.5-0.1,1-0.2,1.6c0.5,0.1,0.8-0.1,1.2-0.2c2.3-0.7,4.5-1.6,6.8-2.5c2.4-1,2.4-1,1.9-3.5C87,34.7,87,34.6,86.8,34.3z M75.7,51.5
		c-1.5,0.1-2.8,0.4-4.1,0.7c-0.3,0.1-0.5,0.3-0.6,0.6c0,1.1-0.1,2.1-0.2,3.2c1.4,0,2.7-0.4,4.1-0.5c0.5,0,0.5-0.4,0.6-0.7
		C75.6,53.8,75.7,52.7,75.7,51.5z M76.1,55.3c1.2,0,4-0.4,4.1-0.7c0.4-1,0.2-2.1,0.3-3.2c0-0.1,0-0.3,0-0.4c0-0.3-0.2-0.5-0.5-0.4
		c-1.2,0.2-2.4,0.5-3.5,0.7c-0.3,0.1-0.5,0.3-0.5,0.6C76.2,53,75.9,54.1,76.1,55.3z M91.1,42.2c-0.9,0.4-1.6,0.7-2.3,0.9
		c-0.5,0.2-0.9,0.5-0.9,1.2c0,1.2,0.2,2.4,0,3.6c1-0.2,1.9-0.3,2.8-0.5c0.5-0.1,1-0.4,0.9-1.1C91.5,45.1,91.5,43.7,91.1,42.2z
		 M88,42.8c0.9-0.3,1.7-0.6,2.4-1.1c0.3-0.2,0.6-0.5,0.6-1c-0.1-1.5-0.3-3-0.5-4.7c-0.9,0.5-1.6,0.9-2.3,1.3
		c-0.3,0.2-0.5,0.5-0.5,0.9C88,39.8,87.7,41.3,88,42.8z M75.3,63.6c1.3-0.2,2.4-0.5,3.6-0.7c0.4-0.1,0.6-0.3,0.7-0.7
		c0-1,0.3-1.9,0.1-3c-1.1,0.1-2.2,0.5-3.2,0.7c-0.8,0.2-1.1,0.6-1.1,1.4C75.5,62.1,75.4,62.8,75.3,63.6z M80.3,55.2
		c-1.4,0.3-2.7,0.5-3.9,0.7C76,56,76,56.3,75.9,56.6c0,1-0.1,1.9-0.2,3c1.3-0.3,2.6-0.6,3.9-0.9C80,58.6,80,58.3,80,58
		C80,57.1,80,56.2,80.3,55.2z M80.8,52.5c0,0.3,0,0.8-0.1,1.3c0,0.5,0.1,0.8,0.7,0.7c0.9-0.2,2-0.2,2.6-0.8c0.5-0.5,0.2-1.5,0.2-2.3
		c0-0.2,0-0.4,0-0.5c0-1.1,0-1.1-1.1-1c-0.1,0-0.3,0.1-0.4,0.1C80.8,50.3,80.8,50.3,80.8,52.5z M87.5,43.8c-0.9,0.1-1.6,0.5-2.4,0.7
		c-0.3,0.1-0.5,0.3-0.5,0.7c0,1.1,0.1,2.1,0.1,3.2c0,0.3,0.1,0.6,0.5,0.5c0.7-0.2,1.4-0.3,2-0.5c0.2-0.1,0.3-0.2,0.3-0.4
		C87.4,46.6,87.8,45.3,87.5,43.8z M80.6,36.7c2.1-0.6,3.9-1.8,5.9-2.7c0.3-0.1,0.4-0.3,0.4-0.6c-0.1-0.9-0.1-1.9-0.4-3
		C84.5,32.6,82.6,34.7,80.6,36.7z M80.5,58.4c1.2-0.1,2.4-0.5,3.5-0.9c0.2-1,0.2-1.9,0.2-2.9c0,0,0-0.1-0.1-0.2
		c-0.9,0.2-1.8,0.4-2.7,0.6c-0.5,0.1-0.7,0.4-0.7,0.9C80.6,56.7,80.5,57.5,80.5,58.4z M87.5,33.4c0.7-0.5,1.4-0.9,2-1.3
		c0.4-0.3,0.4-0.7,0.3-1.1c-0.2-1.2-0.5-2.4-0.7-3.8c-0.7,0.9-1.4,1.6-2,2.4c-0.1,0.1-0.2,0.4-0.2,0.5C87.3,31.1,87,32.2,87.5,33.4z
		 M90,32.5c-2.4,1.2-2.4,1.2-2.3,3.6c0,0.3-0.1,0.6,0.2,0.8C90,36.4,90.8,34.8,90,32.5z M76.7,39.5c-0.8,0.3-1.6,0.6-2,1.4
		c-0.1,0.2-0.2,0.5,0,0.8s0.5,0.1,0.7,0.1c1.3-0.2,1.3-0.3,1.4-1.6C76.8,40,76.9,39.8,76.7,39.5z"/>
	<path d="M79,29.5c-0.3,0.9-0.9,1.4-1.4,2c-0.1,0.2-0.4,0.4-0.5,0.1c-0.2-0.3-0.8-0.2-0.9-0.7c0-0.1,0.2-0.3,0.2-0.3
		c1,0.1,1.6-0.5,2.2-1.2C78.6,29.4,78.7,29.5,79,29.5z"/>
	<path d="M24.3,35.9c1,0.5,1.4,1.4,1.9,2.3c0.2,0.3,0,0.4-0.1,0.6c-0.1,0.1-0.3,0.2-0.4,0C25.2,37.8,24.8,36.8,24.3,35.9z"/>
	<path d="M21.8,31.7c-1.1-0.2-1.9,0.3-2.6,1.1c0.2-0.9,0.6-1.5,1.5-1.7C21.2,31,21.2,31,21.8,31.7z"/>
	<path d="M55.6,40c1-1.3,1.4-1.4,2.8-0.7C57.4,39.6,56.6,39.8,55.6,40z"/>
	<path d="M28.4,36.5c0-1,0.5-1.2,1.1-1.3c0.4-0.1,0.6,0.2,0.9,0.5c0.1,0.1,0.1,0.2,0,0.3s-0.2,0.1-0.2,0.1
		C29.6,35.8,29.1,36.1,28.4,36.5z"/>
	<path d="M51.3,40.1c-0.9-0.2-1.6-0.4-2.5-0.6C50.1,38.7,50.6,38.8,51.3,40.1z"/>
	<path d="M83.2,29c-0.2,1.3-0.3,2.6-0.5,3.9c-0.3-1.4-0.1-2.7,0.1-4C83,29,83.1,29,83.2,29z"/>
	<path d="M33.2,38.2c-0.9-0.2-1.4-0.9-2.3-1.6C32.2,36.7,32.8,37.3,33.2,38.2z"/>
	<path d="M38,39.5c-0.7,0.2-1.3-0.2-1.8-0.2c-0.2,0-0.4-0.1-0.3-0.3c0-0.2,0.2-0.3,0.4-0.3C36.9,38.7,37.5,38.8,38,39.5z"/>
	<path d="M84.2,24.2c-0.3-1.4,0.7-2.3,1.1-3.4c0.1,0,0.2,0.1,0.3,0.1C85.1,22,84.6,23.1,84.2,24.2L84.2,24.2z"/>
	<path d="M25.8,12.8c-0.2-1.7-0.1-1.8,1.5-1.7C26.5,11.6,26.1,12.1,25.8,12.8z"/>
	<path d="M56.4,19c-0.5-0.6-1-1-1.9-0.8C55.4,17.3,55.9,17.5,56.4,19z"/>
	<path d="M50.1,23.5c-0.3,0.4-0.9,0.7-0.7,1.4c-0.4-0.3-0.9-0.4-0.5-1C49.2,23.4,49.4,23.1,50.1,23.5z"/>
	<path d="M62.8,21.2c-0.6-0.8-1.1-1.3-2.1-1C61.7,19.3,62.1,19.5,62.8,21.2z"/>
	<path d="M87.1,23.1c-0.2,1-0.9,1.8-1.3,2.7C86,24.8,86.3,23.8,87.1,23.1L87.1,23.1z"/>
	<path d="M72.6,34.9c-0.3,0.3-0.5,0.3-0.8,0.3s-0.6,0.1-0.6-0.3c0-0.4,0.2-0.5,0.6-0.5S72.4,34.7,72.6,34.9z"/>
	<path d="M23.8,32.2c-0.5-0.2-0.7-0.6-0.9-0.8c-0.1-0.1-0.1-0.3,0-0.5c0.2-0.2,0.4-0.1,0.4,0.1C23.6,31.2,23.9,31.5,23.8,32.2z"/>
	<path d="M78.4,16.4c-0.6,0.1-0.8-0.4-1.2-0.3c-0.2,0-0.2-0.3-0.1-0.4s0.2-0.3,0.4-0.2C77.9,15.8,78.4,15.9,78.4,16.4z"/>
	<path d="M81.1,25.1c-0.1,0.3,0,0.6-0.3,0.5s-0.5-0.3-0.5-0.7c0-0.2,0-0.5,0.3-0.5C81.2,24.4,81,24.9,81.1,25.1z"/>
	<path d="M17.4,31.5c-0.3,0-0.8-0.7-0.6-1c0-0.1,0.3-0.2,0.3-0.1c0.4,0.2,0.5,0.6,0.5,1C17.6,31.5,17.5,31.5,17.4,31.5z"/>
	<path d="M43.4,39.6c0.5,0.1,0.6,0.4,0.7,0.7c0,0.2-0.2,0.3-0.3,0.2c-0.3-0.1-0.6-0.3-0.7-0.7C43,39.6,43.3,39.7,43.4,39.6z"/>
	<path d="M46,12c-0.3,0-0.4-0.1-0.4-0.3c-0.1-0.3-0.4-0.7,0.1-0.9c0.1,0,0.2-0.1,0.2,0c0.4,0.2,0.1,0.5,0.1,0.8
		C46.1,11.8,46,11.9,46,12z"/>
	<path d="M17.8,24.5c-0.1,0-0.3,0-0.3-0.1c-0.2-0.4-0.7-0.5-0.7-0.9c0-0.1,0.2-0.2,0.3-0.2C17.6,23.6,17.9,23.9,17.8,24.5z"/>
	<path d="M20.5,16.9c-0.3-0.2-0.4-0.5-0.5-0.7s-0.1-0.3,0.1-0.5c0.2-0.1,0.3-0.1,0.5-0.1c0.2,0.1,0.3,0.2,0.2,0.4
		C20.7,16.3,20.6,16.6,20.5,16.9z"/>
	<path d="M68.7,37.3c-0.3,0.3-0.6,0.1-0.8,0.2c-0.2,0.1-0.4,0.1-0.4-0.2c0-0.2,0.1-0.5,0.3-0.5C68.2,36.8,68.5,37,68.7,37.3z"/>
	<path d="M62.3,38.9c-0.3-0.1-0.6-0.1-0.7-0.4c0-0.2,0.1-0.3,0.3-0.3c0.3,0,0.6,0.1,0.7,0.4C62.6,38.7,62.5,38.9,62.3,38.9z"/>
	<path d="M73.4,11.6c0,0.3,0,0.4-0.2,0.4c-0.3,0-0.6-0.2-0.7-0.5c0-0.1,0.1-0.2,0.2-0.3C73.1,11.1,73.3,11.4,73.4,11.6z"/>
	<path d="M63.1,23.7c-0.4-0.2-0.6-0.5-0.6-0.9c0-0.1,0.3-0.2,0.3-0.1C63.2,23,63.3,23.3,63.1,23.7z"/>
	<path d="M39.5,27c-0.2,0-0.3-0.1-0.4-0.3c-0.1-0.3,0.1-0.4,0.3-0.4s0.5,0,0.5,0.3C39.9,26.8,39.8,26.9,39.5,27z"/>
	<path d="M36.6,22c-0.1,0.2-0.2,0.4-0.5,0.4c-0.1,0-0.3-0.1-0.2-0.2c0-0.2,0.1-0.5,0.4-0.4C36.4,21.7,36.5,21.8,36.6,22z"/>
	<path d="M61.2,10.3c0,0.3-0.2,0.4-0.5,0.5c-0.2,0.1-0.3-0.1-0.3-0.3c0-0.3,0.2-0.5,0.5-0.5C61,10,61.2,10.1,61.2,10.3z"/>
	<path d="M40.1,12.1c-0.3-0.1-0.4-0.3-0.3-0.5c0-0.2,0.2-0.4,0.5-0.3c0.2,0.1,0.2,0.2,0.2,0.4C40.5,12,40.3,12.1,40.1,12.1z"/>
	<path d="M47,28.4c0,0.2-0.1,0.3-0.3,0.4c-0.3,0-0.4-0.1-0.5-0.3s0-0.4,0.3-0.4C46.8,28,47,28.2,47,28.4z"/>
	<path d="M39.6,19.2c-0.4-0.1-0.7-0.3-0.7-0.6c0-0.1,0.2-0.3,0.3-0.2C39.6,18.4,39.5,18.8,39.6,19.2z"/>
	<path d="M86.2,18.5c0.1,0.5,0,1.1-0.5,1.6C85.7,19.4,85.9,18.9,86.2,18.5L86.2,18.5z"/>
	<path d="M42.2,13.3c-0.2,0-0.3-0.2-0.3-0.4c-0.1-0.2-0.2-0.5,0.1-0.5c0.3-0.1,0.3,0.2,0.3,0.4C42.3,12.9,42.3,13.1,42.2,13.3z"/>
	<path d="M18.4,21.6c0-0.1-0.2,0-0.3,0c-0.3,0-0.4-0.1-0.4-0.4c0-0.2,0-0.4,0.2-0.4C18.2,20.9,18.2,21.2,18.4,21.6z"/>
	<path d="M50.6,9.7c0.1,0,0.3,0.1,0.3,0.4c0,0.2-0.1,0.2-0.2,0.2c-0.2,0-0.4-0.1-0.4-0.4C50.2,9.7,50.3,9.7,50.6,9.7z"/>
	<path d="M57.1,10.7c-0.1,0.2-0.3,0.3-0.5,0.2c-0.1,0-0.2-0.2-0.2-0.3c0.1-0.2,0.3-0.3,0.5-0.3C57.1,10.4,57.2,10.5,57.1,10.7z"/>
	<path d="M45.7,21.2c-0.1,0.2-0.3,0.3-0.6,0.3c0,0-0.1-0.2-0.1-0.3c0-0.2,0.2-0.4,0.5-0.3C45.7,20.9,45.8,21,45.7,21.2z"/>
	<path d="M51.4,29.7c-0.1,0-0.2-0.1-0.3-0.2c0-0.2,0-0.3,0.3-0.4c0.1,0,0.3,0,0.3,0.2C51.7,29.5,51.6,29.6,51.4,29.7z"/>
	<path d="M30,17.4c0.2,0.1,0.4,0.2,0.3,0.4c0,0.1-0.2,0.2-0.3,0.2c-0.2,0-0.3-0.1-0.3-0.4C29.8,17.5,30,17.5,30,17.4z"/>
	<path d="M80.6,20.2c-0.2,0-0.3-0.1-0.3-0.2c0-0.3,0.1-0.5,0.4-0.5c0.1,0,0.2,0.1,0.3,0.2C81.1,20,80.9,20.1,80.6,20.2z"/>
	<path d="M57.5,28.3c-0.2,0.1-0.2-0.1-0.2-0.2c0-0.2,0-0.4,0.2-0.5c0.1,0,0.2,0.1,0.3,0.2C57.8,28,57.8,28.2,57.5,28.3z"/>
	<path d="M38,25.7c0,0.1-0.1,0.2-0.3,0.2s-0.2-0.2-0.2-0.3s0.1-0.2,0.3-0.2S38,25.5,38,25.7z"/>
	<path d="M52,24.3c0.1-0.1,0.2-0.3,0.4-0.3c0.2,0.1,0.3,0.2,0.2,0.4c-0.1,0.1-0.2,0.2-0.3,0.2C52.1,24.7,52,24.5,52,24.3z"/>
	<path d="M85.1,27.2c-0.2-0.2-0.1-0.4,0.1-0.6c0.1-0.1,0.2,0,0.2,0C85.3,26.8,85.3,27.1,85.1,27.2z"/>
</g>
</svg>
