<?xml version="1.0" encoding="utf-8"?>
<!-- Generator: Adobe Illustrator 22.1.0, SVG Export Plug-In . SVG Version: 6.00 Build 0)  -->
<svg version="1.1" id="Layer_1" xmlns="http://www.w3.org/2000/svg" xmlns:xlink="http://www.w3.org/1999/xlink" x="0px" y="0px"
	 viewBox="0 0 26.5 25.1" style="enable-background:new 0 0 26.5 25.1;" xml:space="preserve">
<path d="M2.1,2.9C1.5,2.9,1.4,3.8,2,4l2,0.4l0.5,2.4c0,0,0,0,0,0L7,18.2c0.1,0.2,0.3,0.4,0.5,0.4h14.3c0.7,0,0.7-1.1,0-1.1H8
	l-0.5-2.2h15.1c0.2,0,0.5-0.2,0.5-0.4l1.8-8.2c0.1-0.3-0.2-0.6-0.5-0.6c-6.3,0-12.6,0-18.9,0L5,3.8c0-0.2-0.2-0.4-0.4-0.4L2.2,2.9
	C2.2,2.9,2.2,2.9,2.1,2.9L2.1,2.9z M10.9,19.8c-1,0-1.9,0.9-1.9,1.9c0,1,0.8,1.9,1.9,1.9c1,0,1.9-0.9,1.9-1.9
	C12.8,20.6,12,19.8,10.9,19.8z M18.5,19.8c-1,0-1.9,0.9-1.9,1.9c0,1,0.8,1.9,1.9,1.9s1.9-0.9,1.9-1.9C20.4,20.6,19.5,19.8,18.5,19.8
	z"/>
</svg>
